<svg xmlns="http://www.w3.org/2000/svg" xmlns:xlink="http://www.w3.org/1999/xlink" viewBox="0 0 538.01 538.01"><defs><style>.cls-1{fill:#f69000;stroke:#f60;stroke-miterlimit:10;}.cls-2{fill:#e94d00;}.cls-3{fill:url(#Naamloos_verloop_38);}</style><linearGradient id="Naamloos_verloop_38" x1="252.31" y1="248.16" x2="431.99" y2="472.25" gradientUnits="userSpaceOnUse"><stop offset="0" stop-color="#fff" stop-opacity="0"/><stop offset="1" stop-color="#f3d600"/></linearGradient></defs><g id="Laag_8" data-name="Laag 8"><circle class="cls-1" cx="269.01" cy="269.01" r="268.51"/><polygon class="cls-2" points="197.93 158.89 208.34 190.95 242.05 190.95 214.78 210.77 225.2 242.83 197.93 223.01 170.65 242.83 181.07 210.77 153.79 190.95 187.51 190.95 197.93 158.89"/><polygon class="cls-2" points="331.27 158.89 341.68 190.95 375.39 190.95 348.12 210.77 358.54 242.83 331.27 223.01 303.99 242.83 314.41 210.77 287.14 190.95 320.85 190.95 331.27 158.89"/><polygon class="cls-2" points="242.05 278.35 252.47 310.41 286.18 310.41 258.91 330.23 269.33 362.29 242.05 342.47 214.78 362.29 225.2 330.23 197.93 310.41 231.64 310.41 242.05 278.35"/><polygon class="cls-2" points="375.39 269 385.81 301.07 419.52 301.07 392.25 320.88 402.67 352.94 375.39 333.13 348.12 352.94 358.54 320.88 331.27 301.07 364.98 301.07 375.39 269"/><path class="cls-3" d="M428.26,52.85a267.17,267.17,0,0,1,43.57,146.56c0,148.29-120.21,268.5-268.5,268.5A267.24,267.24,0,0,1,44.07,415.56C92,489,174.81,537.51,269,537.51c148.29,0,268.5-120.21,268.5-268.5A268.08,268.08,0,0,0,428.26,52.85Z"/></g></svg>